<svg height="496pt" viewBox="0 0 496 496" width="496pt" xmlns="http://www.w3.org/2000/svg"><path d="m456 368v-16h24v-64h16v-48h-32v-62.335938c0-18.886718-12.871094-34.953124-31.320312-39.046874l-40.679688-9.03125v-11.699219c14.488281-10.132813 24-26.910157 24-45.886719v-16c0-30.878906-25.128906-56-56-56h-360v272h224v16h16v16.71875c-22.664062 3.824219-40 23.539062-40 47.28125v16c0 14.167969 6.207031 26.878906 16 35.679688v14.289062l-32.792969 9.367188c-6.0625 1.726562-11.238281 5.25-15.207031 9.800781-3.96875-4.550781-9.144531-8.074219-15.207031-9.800781l-32.792969-9.367188v-14.289062c9.792969-8.792969 16-21.503907 16-35.679688v-16c0-26.472656-21.527344-48-48-48s-48 21.527344-48 48v16c0 14.167969 6.207031 26.878906 16 35.679688v14.289062l-32.792969 9.367188c-13.664062 3.894531-23.207031 16.550781-23.207031 30.769531v37.894531h496v-37.894531c0-14.21875-9.542969-26.867188-23.207031-30.769531l-32.792969-9.367188v-14.289062c9.792969-8.800782 16-21.511719 16-35.679688zm-16 0c0 17.648438-14.351562 32-32 32s-32-14.351562-32-32v-16c0-17.648438 14.351562-32 32-32s32 14.351562 32 32zm-112 69.136719c-3.96875-4.550781-9.144531-8.074219-15.207031-9.800781l-32.792969-9.367188v-14.289062c9.792969-8.792969 16-21.503907 16-35.679688v-16h64v16c0 14.167969 6.207031 26.878906 16 35.679688v14.289062l-32.792969 9.367188c-6.0625 1.726562-11.238281 5.25-15.207031 9.800781zm152-165.136719h-240v-16h240zm-50.792969-117.761719c11.066407 2.457031 18.792969 12.097657 18.792969 23.425781v62.335938h-176v-62.335938c0-11.335937 7.726562-20.96875 18.792969-23.433593l41.542969-9.230469c4.574218 6.0625 13.671874 15 27.664062 15s23.089844-8.9375 27.664062-14.992188zm-53.207031-20.445312c-1.984375 3.0625-7.496094 10.207031-16 10.207031s-14.015625-7.144531-16-10.207031v-8.152344c5.070312 1.519531 10.441406 2.359375 16 2.359375s10.929688-.839844 16-2.359375zm24-77.792969v16c0 22.054688-17.945312 40-40 40s-40-17.945312-40-40v-16c0-22.054688 17.945312-40 40-40s40 17.945312 40 40zm-384 200v-240h304.886719c-10.40625 10.175781-16.886719 24.335938-16.886719 40v16c0 18.976562 9.511719 35.761719 24 45.886719v11.699219l-40.679688 9.039062c-18.449218 4.09375-31.320312 20.152344-31.320312 39.039062v62.335938h-32v16zm448 32v48h-10.800781c-6.605469-18.617188-24.34375-32-45.199219-32s-38.59375 13.382812-45.199219 32h-69.601562c-5.742188-16.175781-19.894531-28.351562-37.199219-31.28125v-16.71875zm-248 64c0-17.648438 14.351562-32 32-32s32 14.351562 32 32v16c0 17.648438-14.351562 32-32 32s-32-14.351562-32-32zm32 64c5.617188 0 10.984375-1.023438 16-2.800781v8.59375c-1.984375 3.0625-7.496094 10.207031-16 10.207031s-14.015625-7.144531-16-10.207031v-8.59375c5.015625 1.777343 10.382812 2.800781 16 2.800781zm-60.398438 26.71875 32.957032-9.414062c4.648437 6.046874 13.671875 14.695312 27.441406 14.695312s22.792969-8.648438 27.433594-14.695312l32.957031 9.414062c6.832031 1.953125 11.601563 8.28125 11.601563 15.386719v21.894531h-143.992188v-21.894531c0-7.105469 4.777344-13.433594 11.601562-15.386719zm-131.601562-90.71875c0-17.648438 14.351562-32 32-32s32 14.351562 32 32v16c0 17.648438-14.351562 32-32 32s-32-14.351562-32-32zm32 64c5.617188 0 10.984375-1.023438 16-2.800781v8.59375c-1.984375 3.0625-7.496094 10.207031-16 10.207031s-14.015625-7.144531-16-10.207031v-8.59375c5.015625 1.777343 10.382812 2.800781 16 2.800781zm-72 42.105469c0-7.105469 4.777344-13.433594 11.601562-15.386719l32.957032-9.414062c4.648437 6.046874 13.671875 14.695312 27.441406 14.695312s22.792969-8.648438 27.433594-14.695312l32.957031 9.414062c6.832031 1.953125 11.601563 8.28125 11.601563 15.386719v21.894531h-143.992188zm452.398438-15.386719c6.832031 1.953125 11.601562 8.28125 11.601562 15.386719v21.894531h-144v-21.894531c0-7.105469 4.777344-13.433594 11.601562-15.386719l32.957032-9.414062c4.648437 6.046874 13.671875 14.695312 27.441406 14.695312s22.792969-8.648438 27.433594-14.695312zm-44.398438-20.925781c-1.984375 3.0625-7.496094 10.207031-16 10.207031s-14.015625-7.144531-16-10.207031v-8.59375c5.015625 1.785156 10.382812 2.800781 16 2.800781s10.984375-1.023438 16-2.800781zm0 0"/><path d="m32 32h16v16h-16zm0 0"/><path d="m64 32h64v16h-64zm0 0"/><path d="m32 64h16v16h-16zm0 0"/><path d="m64 64h64v16h-64zm0 0"/><path d="m192 91.6875-32.078125 14.257812c-32.929687 14.640626-67.898437 22.054688-103.921875 22.054688h-8v96h-16v16h176v-16h-16zm-16 24.625v107.6875h-16v-100.761719c2.144531-.886719 4.296875-1.726562 6.425781-2.671875zm-48 17.984375c5.375-1.480469 10.703125-3.152344 16-4.96875v94.671875h-16zm-16 89.703125h-16v-83.007812c5.367188-.792969 10.695312-1.746094 16-2.855469zm-48-80.113281c5.359375-.152344 10.6875-.519531 16-.984375v81.097656h-16zm0 0"/></svg>
				